<svg width="49" height="56" viewBox="0 0 49 56" fill="none" xmlns="http://www.w3.org/2000/svg">
<circle cx="24.5" cy="30.6895" r="24.5" fill="url(#paint0_linear)"/>
<g clip-path="url(#clip0)">
<path d="M24.242 9.62817C21.9631 9.62817 20.1157 11.4756 20.1157 13.7545C20.118 16.0325 21.964 17.8786 24.242 17.8808C26.521 17.8808 28.3683 16.0334 28.3683 13.7545C28.3683 11.4756 26.521 9.62817 24.242 9.62817ZM24.242 16.5054C22.7228 16.5054 21.4912 15.2737 21.4912 13.7545C21.4912 12.2352 22.7228 11.0036 24.242 11.0036C25.7613 11.0036 26.9929 12.2352 26.9929 13.7545C26.9929 15.2737 25.7614 16.5054 24.242 16.5054Z" fill="white"/>
<path d="M31.6149 19.7034C31.3878 19.4761 31.1485 19.2613 30.8979 19.0602L30.9048 19.0402C33.1717 12.0448 30.6359 4.38762 24.6417 0.12798C24.4027 -0.04266 24.0817 -0.04266 23.8426 0.12798C17.8485 4.38762 15.3127 12.0448 17.5796 19.0402L17.5864 19.0602C13.8047 22.0959 13.1998 27.6226 16.2355 31.4044C16.4367 31.6549 16.6514 31.8943 16.8788 32.1213C17.0077 32.2503 17.1826 32.3228 17.365 32.3228C17.4388 32.3227 17.5122 32.3109 17.5823 32.2877C17.8295 32.2055 18.0089 31.9906 18.0458 31.7327L18.5651 28.0988C18.6136 27.7604 18.9033 27.509 19.2452 27.5088H21.34L20.8173 30.1221C20.7413 30.4942 20.9814 30.8575 21.3536 30.9334C21.3989 30.9427 21.4451 30.9474 21.4913 30.9474H26.993C27.3728 30.9475 27.6809 30.6396 27.6809 30.2598C27.6809 30.2136 27.6763 30.1674 27.667 30.1221L27.1443 27.5088H29.2391C29.5812 27.5091 29.8711 27.7608 29.9193 28.0995L30.4385 31.7327C30.4755 31.9906 30.6549 32.2055 30.902 32.2877C30.9722 32.3109 31.0455 32.3227 31.1194 32.3228C31.3018 32.3228 31.4766 32.2503 31.6056 32.1213C35.0373 28.6948 35.0414 23.1352 31.6149 19.7034ZM24.2422 1.5427C25.895 2.80363 27.2777 4.38392 28.308 6.18961H20.1764C21.2067 4.38392 22.5893 2.80363 24.2422 1.5427ZM19.2452 26.1334C18.2202 26.1378 17.3524 26.8909 17.2034 27.905L16.9056 29.9908C15.9868 28.6036 15.563 26.9469 15.7028 25.2889H15.7021C15.8535 23.4467 16.6873 21.7274 18.0403 20.468L19.86 26.1334H19.2452V26.1334ZM22.3303 29.572L22.7429 27.5089H25.7414L26.154 29.572H22.3303ZM21.3049 26.1334L19.041 19.0898L18.8897 18.6187C17.7172 14.987 17.929 11.05 19.4845 7.56505H28.9998C30.5553 11.05 30.7672 14.987 29.5947 18.6187L29.4434 19.0898L27.1794 26.1334H21.3049ZM31.5787 29.9908L31.281 27.905C31.132 26.8909 30.2642 26.1378 29.2391 26.1334H28.6243L30.4454 20.468C31.7976 21.7277 32.6308 23.4469 32.7816 25.2889C32.9214 26.9469 32.4976 28.6036 31.5787 29.9908Z" fill="white"/>
<path d="M21.4913 32.2677V34.5097C19.8212 33.9999 18.0063 34.4437 16.7598 35.6664C15.7148 34.423 14.1751 33.703 12.5509 33.6982C12.0502 33.6982 11.5519 33.7677 11.0703 33.9045C10.5149 30.6005 7.6487 28.1845 4.29831 28.1965H3.6106V29.5719H4.29831C7.10962 29.5632 9.46978 31.687 9.75673 34.4836C9.08835 34.8728 8.5093 35.3984 8.05738 36.0261C6.81785 34.9671 5.24092 34.3854 3.6106 34.3859V35.7613C6.64773 35.7648 9.1089 38.226 9.11234 41.2631H10.4878C10.4885 39.7397 9.98024 38.2597 9.04357 37.0584C9.45181 36.3819 10.045 35.8364 10.7532 35.4863C10.7601 35.4863 10.7677 35.4863 10.7746 35.4794C11.3285 35.2119 11.9358 35.0733 12.5509 35.0736C13.8838 35.0798 15.1319 35.7281 15.9036 36.8149C15.5128 37.5495 15.3063 38.368 15.3018 39.1999H16.6772C16.6766 38.4968 16.8753 37.808 17.2501 37.2131H17.246C17.2556 37.2001 17.2687 37.1904 17.2783 37.1767C18.2077 35.8109 19.9791 35.3026 21.4913 35.9677V37.7695H22.8667V32.2677H21.4913V32.2677Z" fill="white"/>
<path d="M44.1861 29.5719H44.8738V28.1965H44.1861C40.8357 28.1845 37.9694 30.6005 37.4141 33.9045C36.9324 33.7677 36.4342 33.6982 35.9334 33.6982C34.3096 33.7025 32.7699 34.4217 31.7246 35.6644C30.4781 34.4416 28.6631 33.9979 26.9931 34.5076V32.2657H25.6177V37.7674H26.9931V35.9677C28.5051 35.3024 30.2765 35.8104 31.2061 37.176C31.2157 37.1897 31.2288 37.1994 31.2384 37.2124H31.2343C31.6092 37.8075 31.8078 38.4966 31.8071 39.1999H33.1826C33.1781 38.368 32.9716 37.5495 32.5808 36.8149C33.3524 35.7281 34.6006 35.0798 35.9334 35.0736C36.5487 35.0737 37.1559 35.2129 37.7098 35.4808C37.7167 35.4842 37.7243 35.4849 37.7311 35.4876C38.4404 35.8369 39.0349 36.3819 39.4442 37.0584C38.5063 38.2593 37.9968 39.7393 37.9966 41.2631H39.372C39.3755 38.226 41.8366 35.7648 44.8738 35.7613V34.3859C43.2435 34.3856 41.6666 34.9672 40.427 36.0261C39.9751 35.3984 39.396 34.8728 38.7276 34.4836C39.0147 31.6869 41.3748 29.5632 44.1861 29.5719Z" fill="white"/>
</g>
<defs>
<linearGradient id="paint0_linear" x1="-8.25263" y1="-0.773705" x2="24.5" y2="55.1895" gradientUnits="userSpaceOnUse">
<stop stop-color="#4A00E0"/>
<stop offset="1" stop-color="#1C2056"/>
</linearGradient>
<clipPath id="clip0">
<rect width="41.2632" height="41.2632" fill="white" transform="translate(3.6106)"/>
</clipPath>
</defs>
</svg>
