<svg width="95" height="107" viewBox="0 0 95 107" fill="none" xmlns="http://www.w3.org/2000/svg">
<circle cx="47.5" cy="59.5" r="47.5" fill="url(#paint0_linear)"/>
<g clip-path="url(#clip0)">
<path d="M47 18.6669C42.5817 18.6669 39 22.2485 39 26.6669C39.0043 31.0833 42.5835 34.6625 47 34.6668C51.4183 34.6668 55 31.0852 55 26.6669C55 22.2485 51.4183 18.6669 47 18.6669ZM47 32.0002C44.0545 32.0002 41.6667 29.6124 41.6667 26.6669C41.6667 23.7214 44.0545 21.3335 47 21.3335C49.9455 21.3335 52.3333 23.7214 52.3333 26.6669C52.3333 29.6124 49.9456 32.0002 47 32.0002Z" fill="white"/>
<path d="M61.294 38.2004C60.8538 37.7596 60.3898 37.3433 59.904 36.9533L59.9173 36.9146C64.3123 23.3521 59.396 8.50649 47.7747 0.248002C47.3112 -0.0828302 46.6889 -0.0828302 46.2254 0.248002C34.6041 8.50649 29.6877 23.3521 34.0827 36.9146L34.0961 36.9533C26.7641 42.8389 25.5914 53.5539 31.4769 60.8859C31.8669 61.3717 32.2832 61.8357 32.7241 62.2759C32.9741 62.5259 33.3131 62.6665 33.6667 62.6665C33.8099 62.6664 33.9521 62.6434 34.0881 62.5985C34.5672 62.439 34.9151 62.0225 34.9867 61.5225L35.9934 54.4772C36.0876 53.8211 36.6492 53.3337 37.3121 53.3332H41.3734L40.36 58.3999C40.2127 59.1214 40.6782 59.8257 41.3997 59.9729C41.4875 59.9909 41.577 59.9999 41.6667 59.9999H52.3334C53.0697 60.0001 53.6669 59.4032 53.667 58.6669C53.667 58.5772 53.658 58.4877 53.64 58.3999L52.6267 53.3332H56.688C57.3512 53.3339 57.9132 53.8219 58.0067 54.4786L59.0133 61.5225C59.085 62.0225 59.4328 62.439 59.912 62.5985C60.048 62.6434 60.1902 62.6664 60.3333 62.6665C60.687 62.6665 61.026 62.5259 61.276 62.2759C67.9293 55.6327 67.9373 44.8537 61.294 38.2004ZM47 2.99083C50.2045 5.43549 52.8852 8.49932 54.8827 12.0001H39.1174C41.1149 8.49932 43.7955 5.43549 47 2.99083ZM37.3121 50.6667C35.3247 50.6752 33.6422 52.1352 33.3534 54.1014L32.7761 58.1454C30.9947 55.4559 30.1731 52.2439 30.4441 49.0294H30.4427C30.7362 45.4577 32.3529 42.1244 34.9761 39.6828L38.5041 50.6667H37.3121V50.6667ZM43.2934 57.3334L44.0934 53.3334H49.9067L50.7067 57.3334H43.2934ZM41.3054 50.6667L36.9161 37.0108L36.6227 36.0974C34.3496 29.0563 34.7602 21.4233 37.7761 14.6668H56.224C59.2398 21.4233 59.6507 29.0563 57.3773 36.0974L57.084 37.0108L52.6947 50.6667H41.3054ZM61.224 58.1454L60.6467 54.1014C60.3578 52.1352 58.6753 50.6752 56.688 50.6667H55.496L59.0267 39.6828C61.6483 42.1251 63.2637 45.4582 63.556 49.0294C63.8272 52.2439 63.0055 55.4559 61.224 58.1454Z" fill="white"/>
<path d="M41.6666 62.56V66.9067C38.4288 65.9184 34.9099 66.7787 32.4933 69.1493C30.4673 66.7385 27.4823 65.3427 24.3333 65.3334C23.3625 65.3334 22.3965 65.468 21.4626 65.7334C20.386 59.3275 14.829 54.6435 8.33333 54.6667H7V57.3334H8.33333C13.7838 57.3165 18.3596 61.434 18.916 66.856C17.6201 67.6107 16.4975 68.6297 15.6213 69.8467C13.2182 67.7935 10.1608 66.6657 7 66.6667V69.3333C12.8883 69.34 17.66 74.1117 17.6666 80H20.3333C20.3348 77.0465 19.3493 74.1772 17.5333 71.848C18.3248 70.5365 19.4748 69.4788 20.848 68.8C20.8613 68.8 20.876 68.8 20.8893 68.7867C21.9633 68.2682 23.1406 67.9993 24.3333 68C26.9175 68.012 29.3373 69.2688 30.8333 71.376C30.0756 72.8002 29.6753 74.387 29.6666 76H32.3333C32.3321 74.6368 32.7173 73.3013 33.4439 72.148H33.4359C33.4546 72.1227 33.4799 72.104 33.4986 72.0773C35.3004 69.4293 38.7349 68.4438 41.6666 69.7333V73.2267H44.3333V62.56H41.6666V62.56Z" fill="white"/>
<path d="M85.6664 57.3334H86.9998V54.6667H85.6664C79.1708 54.6435 73.6138 59.3275 72.5371 65.7334C71.6033 65.468 70.6373 65.3334 69.6665 65.3334C66.5181 65.3417 63.5331 66.736 61.5065 69.1453C59.0898 66.7747 55.571 65.9144 52.3332 66.9027V62.556H49.6665V73.2227H52.3332V69.7333C55.2647 68.4435 58.699 69.4285 60.5011 72.076C60.5198 72.1027 60.5451 72.1213 60.5638 72.1467H60.5558C61.2828 73.3003 61.6678 74.6363 61.6665 76H64.3331C64.3245 74.387 63.9241 72.8002 63.1665 71.376C64.6625 69.2688 67.0823 68.012 69.6665 68C70.8593 68.0002 72.0366 68.27 73.1105 68.7893C73.1238 68.796 73.1385 68.7973 73.1518 68.8027C74.5269 69.4798 75.6794 70.5365 76.4731 71.848C74.6546 74.1763 73.6668 77.0457 73.6665 80H76.3331C76.3398 74.1117 81.1114 69.34 86.9998 69.3333V66.6667C83.8389 66.666 80.7818 67.7937 78.3784 69.8467C77.5023 68.6297 76.3796 67.6107 75.0838 66.856C75.6403 61.4339 80.2159 57.3165 85.6664 57.3334Z" fill="white"/>
</g>
<defs>
<linearGradient id="paint0_linear" x1="-16" y1="-1.5" x2="47.5" y2="107" gradientUnits="userSpaceOnUse">
<stop stop-color="#4A00E0"/>
<stop offset="1" stop-color="#1C2056"/>
</linearGradient>
<clipPath id="clip0">
<rect width="80" height="80" fill="white" transform="translate(7)"/>
</clipPath>
</defs>
</svg>
